<?xml version="1.0" encoding="utf-8"?>
<!-- Generator: Adobe Illustrator 27.7.0, SVG Export Plug-In . SVG Version: 6.00 Build 0)  -->
<svg version="1.1" id="Layer_1" xmlns="http://www.w3.org/2000/svg" xmlns:xlink="http://www.w3.org/1999/xlink" x="0px" y="0px"
	 viewBox="0 0 399.3 130" style="enable-background:new 0 0 399.3 130;" xml:space="preserve">
<style type="text/css">
	.st0{fill:#004693;}
	.st1{fill:#1C76B7;}
</style>
<g>
	<path class="st0" d="M209.5,41.7c0-1.8,0.6-3.3,1.8-4.5c1.2-1.2,2.7-1.9,4.5-1.9c1.7,0,3.2,0.6,4.4,1.9c1.2,1.3,1.8,2.8,1.8,4.5
		c0,1.8-0.6,3.2-1.9,4.5c-1.2,1.2-2.7,1.8-4.4,1.8c-1.7,0-3.2-0.6-4.4-1.8C210.1,45,209.5,43.5,209.5,41.7"/>
	<polygon class="st1" points="152.5,36 152.5,93.8 118,93.8 	"/>
	<polygon class="st1" points="116.2,36.1 116.2,93.9 81.7,93.9 	"/>
	<polygon class="st1" points="74.2,36 74.2,93.9 39.7,93.9 	"/>
	<polygon class="st1" points="112.2,36.1 77.7,36.1 77.7,94 	"/>
	<path class="st0" d="M321.1,92.8V80.3l0.1-14.9v-0.2c0-4.6-1.2-8.1-3.5-10.4c-2.3-2.3-5.8-3.5-10.3-3.5c-2.6,0-5.1,0.5-7.5,1.6
		c-2.4,1-4.5,2.5-6.3,4.4l1.2,4.8h0.4c0.7-1.3,1.7-2.4,3-3.1c1.3-0.7,2.8-1.1,4.5-1.1c2.4,0,4.3,0.7,5.7,2.1c1.3,1.4,2,3.4,2,5.9
		c0,1.4-1.8,2.6-5.5,3.8c-2.2,0.7-3.9,1.2-5.3,1.7c-3.6,1.3-6.2,2.9-7.6,4.7c-1.4,1.8-1.2,13.6,0.7,15.6c1.9,2.1,4.4,3.1,7.7,3.1
		c2.3,0,4.3-0.4,6.1-1.2c1.7-0.8,3.2-2,4.5-3.7c0.7,1.6,1.7,2.8,3,3.6C315.2,94.2,321.1,94.6,321.1,92.8 M310.1,80.6
		c0,2.4-0.4,4.1-1.2,5.3c-0.8,1.2-2.1,1.7-3.8,1.7c-1.3,0-2.4-0.6-3.2-1.7c-0.8-1.2-1.2-2.7-1.2-4.5c0-2.6,0.8-4.7,2.3-6.3
		c1.5-1.6,3.9-2.6,7.1-3.2V80.6z"/>
	<rect x="209.2" y="52.2" class="st0" width="12.8" height="41.4"/>
	<path class="st0" d="M205,35.7h-7.9v37c-5-5.7-9.8-11.6-14.5-17.6c-4.9-6.3-9.7-12.8-14.4-19.4v0h0c0,0,0,0,0,0c0,0,0,0,0,0h-10.1
		v0v15.7v42.3c0,0,0,0,0,0c0,0,0.1,0,0.1,0h7.7c0,0,0.1,0,0.1,0c0-0.1,0-0.1,0-0.2V55.6c5.3,6.2,10.4,12.4,15.3,18.7
		c5,6.4,9.8,12.8,14.5,19.4v0h1.3l0,0h7.8c0,0,0.1,0,0.1,0c0,0,0,0,0,0h0V35.7z"/>
	<path class="st0" d="M356.8,88.6c-0.9-1.7-2-3.7-3.2-6L347,69.7c1.4-2.2,3-4.7,5-7.4c1.9-2.7,4.3-6,7.2-9.9h0v0c0,0,0,0,0-0.1
		c0,0,0,0,0,0v0h-8.7v0c0,0,0,0,0,0c-0.9,1.8-1.8,3.6-2.8,5.6c-1,1.9-2.2,4.1-3.6,6.4l-5.3-11.9c-12.9,0-13.5,0.1-14.9,0
		c1.2,2.1,2.5,4.3,3.8,6.6c1.3,2.3,2,3.5,2.2,3.7l6.2,12c-2.1,3.3-4.2,6.5-6.3,9.7c-2.1,3.2-4.3,6.3-6.5,9.4c5.2,0,5.2,0,8.9,0
		c0.9-1.9,2.2-4.3,3.8-7.5c1.6-3.1,2.6-5.2,3.1-6.1l6.2,13.6c7.7,0,7.7,0,14.6,0C358.7,92,357.7,90.3,356.8,88.6"/>
	<path class="st0" d="M219.8,61.2L219.8,61.2C219.8,61.2,219.8,61.2,219.8,61.2l0-0.4c0,0,0,0,0,0c0,0,0,0,0,0L219.8,61.2
		C219.8,61.2,219.8,61.2,219.8,61.2"/>
	<path class="st0" d="M261.9,93.7C261.9,93.7,261.9,93.7,261.9,93.7C261.9,93.7,261.9,93.7,261.9,93.7"/>
	<path class="st0" d="M285.9,63.2c-0.1-5.7-2.6-8.8-4.4-10.1c-1.8-1.3-4.1-2-6.9-2c-2.6,0-4.9,0.5-6.8,1.6c-1.9,1.1-3.8,2.9-5.6,5.4
		v0c0,0,0,0,0,0h0c-0.7-2.2-1.9-3.8-3.6-5.1c-1.8-1.3-4.1-2-6.9-2c-2.6,0-4.9,0.5-6.8,1.6c-1.9,1.1-3.8,2.8-5.5,5.3v-5.8
		c-0.1,0-0.1,0-0.2,0v0h-11.8v41.4h0.1c0,0,0,0,0,0c0.1,0,0.1,0,0.2,0h11.6v-0.1c0.2,0,0.5,0,0.8,0.1V65.4c0,0,0,0,0,0c0,0,0,0,0,0
		v-0.1h0c0.1-3.5,2.6-6.3,5.7-6.3c3.1,0,5.7,2.9,5.7,6.4c0,0.1,0,0.3,0,0.4v27.8h3.8h0.1c0,0,0,0,0,0c0.1,0,0.1,0,0.2,0h6.3h0.3v0
		c0,0,0.1,0,0.1,0h0.1v0c0,0,0,0,0,0v-0.1c0.2,0,0.5,0,0.7,0.1V65.4c0,0,0,0,0,0c0,0,0,0,0,0v-0.1h0c0.1-3.5,2.6-6.3,5.7-6.3
		c3.1,0,5.7,2.9,5.7,6.4c0,0.1,0,0.3,0,0.4v27.8h11.7C285.9,93.6,286.1,71.6,285.9,63.2"/>
</g>
</svg>
